<svg width="100" height="90" viewBox="0 0 100 90" fill="none" xmlns="http://www.w3.org/2000/svg">
<path d="M47.3853 32.804C48.2026 31.6143 49.0974 31.4592 49.8267 31.4592C50.5509 31.4592 51.7612 31.6143 52.5785 32.804C63.2338 47.3181 85.3308 85.6049 87.3739 87.6894C90.3998 90.7774 94.5534 88.8533 96.9637 85.3515C99.3431 81.9014 100 79.4807 100 76.8996C100 75.141 65.5873 11.6536 62.1166 6.36735C58.7855 1.28278 57.6993 0 51.9992 0H47.7319C42.0421 0 41.2197 1.28278 37.8886 6.36218C34.4127 11.6588 0 75.1461 0 76.9048C0 79.491 0.656908 81.9066 3.03626 85.3567C5.44665 88.8584 9.60016 90.7878 12.6261 87.6946C14.6692 85.6101 36.7351 47.3232 47.3853 32.8144V32.804Z" fill="black"/>
</svg>
