<svg width="512" height="512" viewBox="0 0 512 512" fill="none" xmlns="http://www.w3.org/2000/svg">
<rect width="512" height="512" fill="#DDDDDD"/>
<path d="M151.838 238C151.554 234.449 150.222 231.679 147.843 229.69C145.499 227.702 141.93 226.707 137.136 226.707C134.082 226.707 131.579 227.08 129.626 227.826C127.708 228.536 126.288 229.513 125.364 230.756C124.441 231.999 123.962 233.419 123.926 235.017C123.855 236.331 124.086 237.521 124.619 238.586C125.187 239.616 126.075 240.557 127.282 241.409C128.489 242.226 130.034 242.972 131.916 243.646C133.798 244.321 136.036 244.925 138.628 245.457L147.577 247.375C153.614 248.653 158.781 250.34 163.077 252.435C167.374 254.531 170.89 256.999 173.624 259.839C176.359 262.645 178.365 265.805 179.643 269.321C180.957 272.837 181.632 276.672 181.668 280.827C181.632 288 179.839 294.072 176.288 299.044C172.737 304.016 167.658 307.798 161.053 310.39C154.484 312.982 146.582 314.278 137.349 314.278C127.868 314.278 119.594 312.876 112.527 310.07C105.496 307.265 100.027 302.95 96.1207 297.126C92.25 291.267 90.2969 283.774 90.2614 274.648H118.386C118.564 277.986 119.398 280.791 120.89 283.064C122.381 285.337 124.477 287.059 127.175 288.231C129.91 289.403 133.159 289.989 136.923 289.989C140.084 289.989 142.729 289.598 144.86 288.817C146.991 288.036 148.607 286.952 149.707 285.567C150.808 284.183 151.376 282.602 151.412 280.827C151.376 279.158 150.826 277.702 149.761 276.459C148.731 275.18 147.026 274.044 144.647 273.05C142.268 272.02 139.054 271.061 135.006 270.173L124.139 267.83C114.48 265.734 106.863 262.237 101.288 257.336C95.7479 252.4 92.9957 245.67 93.0312 237.148C92.9957 230.223 94.8423 224.168 98.571 218.984C102.335 213.763 107.538 209.697 114.178 206.786C120.854 203.874 128.507 202.418 137.136 202.418C145.943 202.418 153.56 203.891 159.988 206.839C166.415 209.786 171.369 213.941 174.849 219.303C178.365 224.63 180.141 230.862 180.176 238H151.838ZM222.763 203.909L245.135 280.827H245.988L268.36 203.909H301.811L265.803 313H225.32L189.311 203.909H222.763ZM376.279 239.918C375.817 238.036 375.089 236.384 374.095 234.964C373.1 233.508 371.858 232.283 370.366 231.288C368.91 230.259 367.206 229.495 365.252 228.998C363.335 228.465 361.222 228.199 358.914 228.199C353.942 228.199 349.699 229.388 346.183 231.768C342.703 234.147 340.039 237.574 338.193 242.048C336.382 246.523 335.476 251.92 335.476 258.241C335.476 264.634 336.346 270.102 338.086 274.648C339.826 279.193 342.419 282.673 345.863 285.088C349.308 287.503 353.587 288.71 358.701 288.71C363.211 288.71 366.957 288.053 369.94 286.739C372.958 285.425 375.213 283.561 376.705 281.146C378.196 278.732 378.942 275.891 378.942 272.624L384.056 273.156H359.127V252.062H407.493V267.19C407.493 277.134 405.38 285.638 401.154 292.705C396.964 299.737 391.176 305.134 383.789 308.898C376.439 312.627 368.005 314.491 358.488 314.491C347.87 314.491 338.548 312.237 330.522 307.727C322.497 303.217 316.229 296.789 311.719 288.444C307.245 280.099 305.007 270.173 305.007 258.668C305.007 249.648 306.375 241.658 309.109 234.697C311.879 227.737 315.714 221.86 320.615 217.066C325.515 212.237 331.179 208.597 337.607 206.146C344.034 203.661 350.924 202.418 358.275 202.418C364.738 202.418 370.739 203.341 376.279 205.188C381.854 206.999 386.772 209.591 391.034 212.964C395.331 216.303 398.793 220.262 401.421 224.843C404.049 229.424 405.647 234.449 406.215 239.918H376.279Z" fill="black"/>
</svg>
